<svg xmlns="http://www.w3.org/2000/svg" viewBox="0 0 480.000000 728.000000" fill="currentColor">
<g transform="translate(0.000000,728.000000) scale(0.100000,-0.100000)">
<path d="M250 3505 l0 -3115 615 0 615 0 0 944 0 945 835 0 835 0 0 -945 0
-944 620 0 620 0 0 1840 0 1840 430 0 430 0 0 415 0 415 -367 2 c-203 0 -395
1 -428 2 l-60 1 -3 125 c-2 69 2 176 8 238 26 274 124 383 367 410 76 9 388 0
498 -13 l55 -7 0 466 c0 437 -1 466 -17 466 -10 0 -110 7 -223 15 -241 17
-551 19 -688 4 -535 -58 -895 -288 -1100 -704 -106 -214 -142 -413 -142 -777
l0 -228 -370 0 -370 0 0 -415 0 -415 370 0 370 0 0 -477 0 -478 -835 -2 -835
-3 0 1755 0 1755 -615 0 -615 0 0 -3115z"/>
</g>
</svg>
